<mxfile host="app.diagrams.net" modified="2023-09-29T22:00:16.374Z" agent="Mozilla/5.0 (Windows NT 10.0; Win64; x64) AppleWebKit/537.36 (KHTML, like Gecko) Chrome/117.0.0.0 Safari/537.36 Edg/117.0.2045.43" version="21.8.2" etag="uoPXvFTRTLRImki9Ssws" type="github">
  <diagram name="Page-1" id="LoBB-JAUqGp8qyVOP0q2">
    <mxGraphModel>
      <root>
        <mxCell id="0" />
        <mxCell id="1" parent="0" />
      </root>
    </mxGraphModel>
  </diagram>
</mxfile>
